<svg xmlns="http://www.w3.org/2000/svg" xmlns:xlink="http://www.w3.org/1999/xlink" width="500" zoomAndPan="magnify" viewBox="0 0 375 374.999991" height="500" preserveAspectRatio="xMidYMid meet" version="1.0"><defs><g/></defs><path stroke-linecap="butt" transform="matrix(1.025641, 0, 0, 1.025641, 36.724657, 157.75641)" fill="none" stroke-linejoin="miter" d="M 50.484771 -33.491408 C 48.610943 -33.716115 46.622857 -34.173147 44.775689 -34.173147 C 41.511724 -34.173147 38.274419 -34.173147 35.124712 -34.173147 C 33.506059 -34.173147 31.856938 -34.173147 30.238286 -34.173147 C 27.682719 -34.173147 24.902446 -34.397854 22.091703 -34.397854 C 17.433793 -34.397854 11.755179 -33.716115 9.428128 -29.062014 C 8.715921 -27.443361 8.601663 -25.569533 8.491214 -23.836623 C 7.919925 -15.233009 7.325784 -6.629395 6.872562 2.000879 C 6.617386 2.000879 6.503128 2.000879 6.274612 2.000879 C 3.49053 2.000879 0.710257 2.115137 0.340823 5.607617 C 0.112307 9.214356 -0.226657 12.931544 0.340823 16.538282 C 0.569339 18.271192 1.163479 20.259278 2.782132 21.165724 C 3.833304 21.877931 4.998734 21.877931 6.38887 21.992189 C 6.274612 28.150685 6.274612 34.198732 6.274612 40.361037 C 6.274612 44.196292 6.503128 52.118167 7.440042 55.835355 C 7.919925 57.568265 8.944437 58.619437 10.704007 59.213578 C 12.436918 59.895316 14.310746 60.264749 16.154105 60.264749 C 20.130277 60.264749 25.127153 59.781058 25.694633 55.012698 C 25.923149 52.228616 26.178325 49.5626 26.292582 46.892776 C 26.40684 43.967776 26.064067 41.069436 26.178325 38.148244 C 26.178325 35.025197 26.292582 31.871681 26.521098 28.634377 C 26.631547 26.64629 26.745805 24.547755 26.860063 22.331153 C 27.568461 22.216896 28.139751 22.102638 28.733891 22.102638 C 31.060942 21.992189 33.391802 21.992189 35.692192 21.877931 C 36.853814 21.763673 38.019243 21.649415 39.070415 21.424708 C 40.60147 20.941017 41.625982 19.889845 41.881158 18.271192 C 42.105865 17.105763 42.448638 15.829884 42.448638 14.550196 C 42.33438 11.655665 42.220122 8.844922 41.995415 6.06084 C 41.74024 2.682617 39.554107 0.839258 36.061626 0.725 C 33.506059 0.725 30.950493 0.725 28.364458 0.725 C 27.911235 0.725 27.458012 0.725 26.974321 0.580273 C 26.974321 -2.2 26.974321 -4.869825 27.088579 -7.653907 C 27.088579 -8.815528 27.568461 -9.980958 27.911235 -11.03213 C 29.785063 -11.854786 31.517973 -12.083302 33.391802 -12.083302 C 34.553423 -12.083302 35.692192 -11.969044 36.99854 -11.854786 C 36.99854 -9.299219 37.223247 -6.857911 38.133501 -4.416602 C 40.60147 -3.818653 43.157037 -3.479688 45.598345 -3.479688 C 46.394341 -3.479688 47.331256 -3.479688 48.153912 -3.590137 C 49.886822 -3.818653 51.535943 -4.755567 53.154596 -5.323047 C 53.493561 -5.578223 53.832525 -5.806739 53.977252 -6.145704 C 54.544733 -7.425391 55.367389 -8.815528 55.481647 -10.205665 C 56.277643 -15.800489 56.163385 -21.395314 55.934869 -27.073928 C 55.706354 -30.45215 53.977252 -32.893459 50.484771 -33.491408 Z M 74.193269 -23.608107 C 72.231843 -24.404103 70.01905 -24.518361 67.802448 -24.518361 C 63.148346 -24.518361 61.529694 -20.4584 59.994831 -16.737404 C 59.655866 -15.800489 59.42735 -14.749317 59.42735 -13.812403 C 59.198834 -10.917872 59.084577 -8.019532 58.974127 -5.09834 C 58.85987 -3.704395 58.85987 -2.2 58.718952 -0.809864 C 58.037213 4.784961 57.439264 10.235059 57.210748 15.944141 C 56.986041 21.424708 57.100299 26.989064 57.210748 32.58008 C 57.553522 45.47217 59.198834 56.658011 74.303718 56.658011 C 77.910457 56.658011 81.402937 56.658011 84.895418 56.178128 C 90.375985 55.606839 94.550204 54.102444 96.168856 48.625686 C 98.381649 41.895901 98.865341 34.088283 99.093856 26.989064 C 99.093856 26.05215 98.979598 25.027638 98.865341 24.090724 C 98.724423 23.039552 98.610165 21.992189 98.610165 20.826759 C 98.610165 19.775587 98.724423 18.869142 98.724423 17.81797 C 98.865341 14.892969 98.979598 12.108887 99.093856 9.214356 C 99.093856 1.406738 99.661337 -6.374219 99.775595 -14.296095 C 99.775595 -21.395314 97.928427 -24.887795 90.235067 -24.887795 C 88.502156 -24.887795 86.51407 -24.632619 85.348641 -23.467189 C 84.187019 -22.446486 83.844246 -20.797365 83.619539 -19.178712 C 82.339851 -11.512013 82.907332 -3.704395 83.052058 4.072754 C 83.162508 9.553321 83.276766 14.892969 83.276766 20.373536 C 83.162508 22.331153 83.052058 24.204982 82.907332 26.193068 C 82.907332 28.634377 82.796883 30.934767 82.796883 33.261818 C 82.796883 34.910939 81.886629 35.703127 80.580281 36.186818 C 79.670027 36.529592 78.622664 36.754299 77.68575 36.982815 C 74.901667 36.415334 74.303718 35.135646 74.417976 33.037111 C 74.532234 29.914064 74.532234 26.874806 74.78741 23.751759 C 75.015925 20.004103 75.240632 16.397364 74.901667 12.676368 C 74.532234 9.328614 74.417976 5.946582 74.78741 2.568359 C 74.901667 1.29248 74.78741 0.127051 74.78741 -1.148828 C 74.78741 -4.161426 74.673152 -7.082618 74.673152 -10.095216 C 74.78741 -13.812403 75.015925 -17.56006 75.130183 -21.281056 C 75.130183 -22.19131 74.901667 -23.013966 74.193269 -23.608107 Z M 130.240538 23.751759 C 130.240538 23.496583 130.12628 23.382325 130.12628 23.15381 C 130.012022 22.700587 129.783507 22.216896 130.12628 21.877931 C 130.381456 21.649415 130.609971 21.649415 130.948936 21.535157 C 132.114366 21.424708 133.275987 21.165724 134.441417 20.826759 C 140.036242 18.499708 140.603722 11.769922 140.828429 6.517871 C 141.056945 2.568359 141.056945 -1.263086 141.312121 -5.20879 C 141.654894 -10.095216 142.930773 -16.737404 139.891515 -21.02588 C 137.81964 -23.950881 133.988194 -24.887795 130.495714 -25.002052 C 128.279112 -25.112502 125.952061 -25.112502 123.735459 -25.112502 C 119.306065 -25.112502 114.907138 -25.002052 110.363486 -25.002052 C 103.60704 -25.002052 102.327353 -21.02588 101.988388 -15.233009 C 101.87413 -10.689356 101.759872 -6.145704 101.535165 -1.60586 C 101.535165 -1.263086 101.535165 -0.924121 101.535165 -0.44043 C 101.306649 4.442188 101.051474 9.439063 101.535165 14.439747 C 101.535165 15.48711 101.535165 16.538282 101.420907 17.448536 C 101.165731 20.004103 100.937216 22.586329 100.7087 25.141896 C 100.598251 26.989064 100.7087 28.862892 100.822958 30.706252 C 100.822958 34.198732 101.051474 37.691213 101.051474 41.183694 C 101.051474 45.47217 100.822958 49.67305 100.7087 53.847269 C 100.7087 57.568265 104.658212 58.162406 107.693661 58.162406 C 110.961435 58.162406 115.135654 57.823441 115.844053 53.991995 C 116.640049 49.334085 116.525791 44.561917 116.297275 39.907815 C 116.297275 37.805471 116.640049 35.703127 116.754307 33.631252 C 118.513877 36.754299 119.565049 40.361037 121.069444 43.625002 C 122.573838 47.345999 124.192491 50.952737 125.837803 54.559476 C 127.22794 57.568265 128.39337 58.390921 131.88585 58.390921 C 132.681847 58.390921 133.504503 58.505179 134.555675 58.505179 C 136.996984 58.505179 139.891515 58.162406 141.056945 56.178128 C 142.222374 54.33096 141.197863 51.775394 140.260949 49.787307 C 136.288585 41.297951 133.165538 32.58008 130.240538 23.751759 Z M 123.510752 4.784961 C 121.522666 5.009668 119.565049 5.946582 117.576963 5.946582 C 117.234189 5.946582 117.009482 5.836133 116.640049 5.836133 C 115.703135 3.280566 115.95831 -5.463965 117.119932 -8.815528 C 117.576963 -9.184962 118.144443 -9.299219 118.628135 -9.299219 C 119.195615 -9.299219 119.904014 -9.184962 120.471494 -9.070704 C 121.636924 -8.815528 122.798545 -8.476563 124.078233 -8.248048 C 125.015147 -8.13379 125.498838 -7.653907 125.498838 -6.743653 C 125.613096 -5.920997 125.613096 -4.984083 125.613096 -4.161426 C 125.613096 -2.428516 125.498838 -0.809864 125.498838 0.839258 C 125.354112 2.454102 125.129405 3.848047 123.510752 4.784961 Z M 172.336927 23.751759 C 172.336927 23.496583 172.226478 23.382325 172.226478 23.15381 C 172.11222 22.700587 171.883704 22.216896 172.226478 21.877931 C 172.481654 21.649415 172.706361 21.649415 173.049134 21.535157 C 174.214564 21.424708 175.376185 21.165724 176.541615 20.826759 C 182.136439 18.499708 182.70392 11.769922 182.928627 6.517871 C 183.157143 2.568359 183.157143 -1.263086 183.412318 -5.20879 C 183.751283 -10.095216 185.030971 -16.737404 181.991713 -21.02588 C 179.919838 -23.950881 176.088392 -24.887795 172.595911 -25.002052 C 170.37931 -25.112502 168.052259 -25.112502 165.835657 -25.112502 C 161.406262 -25.112502 157.007336 -25.002052 152.463684 -25.002052 C 145.707238 -25.002052 144.42755 -21.02588 144.088586 -15.233009 C 143.974328 -10.689356 143.86007 -6.145704 143.631554 -1.60586 C 143.631554 -1.263086 143.631554 -0.924121 143.631554 -0.44043 C 143.406847 4.442188 143.151671 9.439063 143.631554 14.439747 C 143.631554 15.48711 143.631554 16.538282 143.521105 17.448536 C 143.262121 20.004103 143.037414 22.586329 142.808898 25.141896 C 142.69464 26.989064 142.808898 28.862892 142.923156 30.706252 C 142.923156 34.198732 143.151671 37.691213 143.151671 41.183694 C 143.151671 45.47217 142.923156 49.67305 142.808898 53.847269 C 142.808898 57.568265 146.754601 58.162406 149.793859 58.162406 C 153.057824 58.162406 157.232043 57.823441 157.94425 53.991995 C 158.736438 49.334085 158.625989 44.561917 158.397473 39.907815 C 158.397473 37.805471 158.736438 35.703127 158.850696 33.631252 C 160.614075 36.754299 161.661438 40.361037 163.165833 43.625002 C 164.674036 47.345999 166.292688 50.952737 167.938001 54.559476 C 169.328138 57.568265 170.493568 58.390921 173.986048 58.390921 C 174.782044 58.390921 175.604701 58.505179 176.655873 58.505179 C 179.097181 58.505179 181.991713 58.162406 183.157143 56.178128 C 184.322572 54.33096 183.298061 51.775394 182.361146 49.787307 C 178.384974 41.297951 175.261927 32.58008 172.336927 23.751759 Z M 165.61095 4.784961 C 163.622864 5.009668 161.661438 5.946582 159.677161 5.946582 C 159.334387 5.946582 159.105872 5.836133 158.736438 5.836133 C 157.799524 3.280566 158.058508 -5.463965 159.220129 -8.815528 C 159.677161 -9.184962 160.244641 -9.299219 160.724524 -9.299219 C 161.292005 -9.299219 162.004212 -9.184962 162.571692 -9.070704 C 163.737122 -8.815528 164.898743 -8.476563 166.178431 -8.248048 C 167.115345 -8.13379 167.595228 -7.653907 167.595228 -6.743653 C 167.709485 -5.920997 167.709485 -4.984083 167.709485 -4.161426 C 167.709485 -2.428516 167.595228 -0.809864 167.595228 0.839258 C 167.45431 2.454102 167.229603 3.848047 165.61095 4.784961 Z M 184.794838 24.547755 C 185.023354 34.541506 184.68058 42.120608 185.248061 49.5626 C 185.503236 52.685647 186.897182 54.669925 189.677455 55.835355 C 190.50392 56.178128 191.551284 56.178128 192.34728 56.547562 C 193.169936 56.772269 193.996401 56.886527 194.788589 56.886527 C 196.776675 56.886527 198.623843 56.288577 200.383413 55.835355 C 200.722378 55.721097 200.950894 55.49639 201.320327 55.267874 C 202.93898 53.991995 203.875894 52.342874 203.875894 50.24053 C 203.875894 48.397171 203.875894 46.523342 203.875894 44.790432 C 203.990152 42.916604 203.875894 41.069436 204.104409 39.309865 C 204.557632 36.868557 204.557632 34.427248 204.557632 32.100197 C 204.67189 29.914064 204.443374 27.697462 205.041324 25.595119 C 205.266031 25.027638 205.266031 24.433497 205.266031 23.866017 C 205.380288 20.373536 205.380288 16.881056 205.494546 13.388575 C 205.723062 3.733789 205.833511 -6.035254 205.833511 -15.686232 C 205.833511 -17.674318 205.833511 -19.635744 205.723062 -21.509572 C 205.608804 -23.128224 204.557632 -24.289845 202.93898 -24.404103 C 201.320327 -24.404103 199.785464 -24.404103 198.166811 -24.289845 C 196.323452 -24.175588 194.449624 -23.836623 192.575795 -23.836623 C 190.728627 -23.722365 189.567006 -22.899709 188.854799 -21.166798 C 187.693178 -18.356056 187.464662 -15.461525 187.236147 -12.536524 C 186.897182 -8.929786 186.897182 -5.323047 186.668666 -1.716309 C 186.41349 1.406738 185.960268 4.442188 185.731752 7.565235 C 185.248061 13.956055 185.023354 20.483985 184.794838 24.547755 Z M 248.055584 0.839258 C 248.055584 -3.36543 248.169842 -7.653907 248.2841 -11.854786 C 248.2841 -12.650782 248.2841 -13.359181 248.398357 -14.181837 C 248.653533 -15.461525 248.882049 -16.851661 248.398357 -18.12754 C 247.945135 -19.178712 247.488103 -20.344142 247.004412 -21.395314 C 245.728533 -24.632619 241.325798 -24.746877 238.290349 -24.746877 C 235.84904 -24.746877 233.293474 -24.887795 230.852165 -24.887795 C 224.804118 -24.887795 216.767984 -24.289845 212.36525 -19.635744 C 206.545718 -13.698146 207.821597 -5.09834 207.482632 2.343652 C 207.227456 6.289356 206.884683 10.235059 206.774234 14.211231 C 206.659976 19.547071 206.659976 24.772462 206.774234 30.024513 C 206.884683 35.135646 206.43146 40.361037 207.59689 45.357913 C 208.987027 52.685647 211.203629 55.382132 218.641813 56.288577 C 221.536344 56.772269 224.347086 56.886527 227.245426 56.886527 C 232.581267 56.886527 242.121794 56.658011 246.212224 53.508304 C 247.716619 52.342874 248.539275 50.838479 248.767791 48.964651 C 248.992498 46.6376 248.992498 44.337209 248.992498 42.00635 C 248.992498 39.793557 248.767791 37.691213 248.539275 35.592678 C 248.539275 34.910939 248.2841 34.088283 247.830877 33.406545 C 247.11867 32.355373 246.212224 31.304201 244.791619 31.418459 C 242.944451 31.418459 234.11613 31.418459 233.179216 33.261818 C 232.467009 35.592678 233.179216 37.691213 231.899528 39.454592 C 230.623649 39.309865 229.45822 39.309865 228.296598 39.309865 C 228.182341 39.309865 227.953825 39.309865 227.812907 39.309865 C 225.626774 39.085158 224.461344 37.805471 224.347086 35.703127 C 224.347086 32.58008 224.347086 29.430373 224.347086 26.307326 C 224.347086 26.05215 224.461344 25.823634 224.575602 25.595119 C 225.512516 25.370411 226.42277 25.256154 227.359684 25.141896 C 228.749821 25.141896 230.139958 25.141896 231.674821 25.027638 C 232.581267 24.91338 233.632439 24.772462 234.68361 24.433497 C 236.073747 24.090724 237.010661 23.039552 237.239177 21.535157 C 237.353435 20.259278 237.467693 18.979591 237.467693 17.703712 C 237.353435 15.48711 237.010661 13.274317 236.896404 11.057715 C 236.896404 7.908008 234.455095 6.289356 231.560563 6.289356 C 229.45822 6.403613 227.359684 6.403613 225.25734 6.517871 C 224.68986 6.517871 224.206168 6.517871 223.638688 6.517871 C 223.638688 3.733789 223.638688 1.063965 223.638688 -1.60586 C 223.752946 -2.428516 224.091911 -3.136914 224.347086 -3.932911 C 226.079997 -4.755567 227.812907 -4.984083 229.572477 -4.984083 C 230.254216 -4.984083 231.076872 -4.984083 231.899528 -4.869825 C 232.242302 -3.136914 232.467009 -1.60586 232.725993 0.0127928 C 232.836442 1.859961 233.632439 3.166309 235.28156 3.962305 C 237.608611 3.848047 239.794744 3.848047 242.007537 3.733789 C 242.834002 3.619531 243.656658 3.166309 244.563103 3.025391 C 246.097967 2.796875 247.11867 2.000879 248.055584 0.839258 Z M 276.437226 4.556445 C 277.37414 4.670703 278.311054 4.899219 279.221308 4.899219 C 282.260566 4.899219 284.473359 4.784961 287.482149 4.442188 C 288.533321 4.331738 289.584493 3.962305 290.521407 3.505273 C 291.088887 2.000879 291.203145 0.580273 291.203145 -0.924121 C 291.317403 -2.767481 291.431661 -4.755567 291.54211 -6.629395 C 291.54211 -6.972169 291.54211 -7.196876 291.54211 -7.539649 C 291.54211 -10.350391 291.54211 -13.130665 291.54211 -15.914747 C 291.686836 -17.674318 291.54211 -19.407228 290.749922 -21.02588 C 289.923457 -22.785451 288.647578 -23.836623 286.914668 -24.065138 C 284.587617 -24.518361 282.485273 -24.746877 280.043965 -24.746877 C 275.869746 -24.746877 271.783124 -25.002052 267.608905 -25.002052 C 263.632733 -25.002052 258.864374 -25.002052 255.143377 -23.352931 C 254.347381 -22.899709 253.524725 -22.446486 253.18576 -21.509572 C 252.702069 -20.572658 252.245037 -19.746193 252.134588 -18.698829 C 251.422381 -14.977833 250.740643 -11.146388 251.197674 -7.311133 C 251.197674 -6.972169 251.197674 -6.488477 251.197674 -6.145704 C 250.740643 -1.975293 250.740643 2.229394 251.536639 6.403613 C 251.677557 7.112012 251.791815 7.679492 251.791815 8.3917 C 251.536639 9.896094 252.245037 11.171973 253.296209 12.223145 C 254.575897 13.388575 255.851776 14.664454 257.245721 15.715626 C 259.458514 17.448536 261.785565 18.979591 264.002167 20.598243 C 265.167597 21.535157 266.21496 22.445411 267.239472 23.496583 C 268.176386 24.433497 269.1133 25.484669 270.050214 26.421583 C 271.440351 27.81172 272.720038 29.087599 273.995917 30.253029 C 273.995917 30.820509 274.110175 31.304201 274.110175 31.643166 C 274.110175 32.922853 274.110175 34.198732 274.110175 35.47842 C 273.995917 37.466506 272.830488 38.628127 270.956659 38.970901 C 269.566523 39.085158 268.062128 39.085158 266.557733 39.195608 C 266.21496 38.517678 265.845526 37.919729 265.845526 37.23799 C 265.620819 35.249904 265.506561 33.14756 265.392304 31.189943 C 265.392304 29.316115 264.683905 28.379201 262.950995 27.81172 C 261.077167 26.874806 259.119549 26.874806 257.017206 26.874806 C 251.197674 27.213771 249.917986 31.757424 249.917986 36.529592 C 249.917986 41.412209 249.803729 46.180569 250.26076 51.066995 C 250.371209 52.826565 251.308123 54.102444 252.359295 55.267874 C 252.702069 55.606839 253.18576 55.835355 253.638983 55.949613 C 255.143377 56.288577 256.78869 56.433304 258.293085 56.658011 C 259.458514 56.772269 260.738202 56.886527 262.014081 57.000784 C 264.230683 57.115042 266.557733 57.454007 268.884784 57.454007 C 270.731952 57.454007 272.491523 57.339749 274.338691 57.225492 C 277.149433 57.115042 279.929707 57.115042 282.713789 57.000784 C 284.816133 56.886527 286.914668 56.288577 288.647578 55.012698 C 289.355977 54.33096 289.923457 53.622562 290.037715 52.685647 C 290.266231 50.724222 290.635665 48.736136 290.749922 46.778518 C 290.860372 42.349123 290.974629 37.919729 290.860372 33.406545 C 290.860372 30.024513 290.521407 23.496583 288.986543 20.483985 C 287.143184 18.271192 285.494063 15.944141 283.052754 14.439747 C 277.004707 10.490235 271.440351 5.721875 266.557733 0.469824 C 266.671991 -1.263086 266.671991 -2.881739 267.723163 -4.416602 C 269.1133 -4.984083 270.503437 -5.20879 271.893574 -5.20879 C 272.944746 -5.20879 274.110175 -5.09834 275.161347 -4.984083 C 275.500312 -1.861035 275.047089 1.29248 276.437226 4.556445 Z M 276.437226 4.556445 " stroke="#fff2df" stroke-width="14.828505" stroke-opacity="1" stroke-miterlimit="4"/><g fill="#011f5b" fill-opacity="1"><g transform="translate(36.724657, 216.217945)"><g><path d="M 51.769531 -92.800781 C 49.859375 -93.039062 47.832031 -93.515625 45.921875 -93.515625 C 42.582031 -93.515625 39.242188 -93.515625 36.023438 -93.515625 C 34.351562 -93.515625 32.683594 -93.515625 31.011719 -93.515625 C 28.390625 -93.515625 25.527344 -93.753906 22.664062 -93.753906 C 17.890625 -93.753906 12.046875 -93.039062 9.660156 -88.269531 C 8.945312 -86.597656 8.828125 -84.691406 8.707031 -82.902344 C 8.109375 -74.074219 7.515625 -65.246094 7.039062 -56.421875 C 6.800781 -56.421875 6.679688 -56.421875 6.441406 -56.421875 C 3.578125 -56.421875 0.714844 -56.300781 0.359375 -52.722656 C 0.121094 -49.023438 -0.238281 -45.207031 0.359375 -41.511719 C 0.597656 -39.722656 1.191406 -37.691406 2.863281 -36.738281 C 3.9375 -36.023438 5.128906 -36.023438 6.558594 -35.902344 C 6.441406 -29.582031 6.441406 -23.378906 6.441406 -17.058594 C 6.441406 -13.121094 6.679688 -5.011719 7.632812 -1.191406 C 8.109375 0.597656 9.183594 1.671875 10.972656 2.265625 C 12.761719 2.980469 14.671875 3.339844 16.582031 3.339844 C 20.636719 3.339844 25.765625 2.863281 26.363281 -2.027344 C 26.601562 -4.890625 26.839844 -7.632812 26.957031 -10.378906 C 27.078125 -13.359375 26.71875 -16.339844 26.839844 -19.324219 C 26.839844 -22.542969 26.957031 -25.765625 27.195312 -29.105469 C 27.316406 -31.132812 27.433594 -33.28125 27.554688 -35.546875 C 28.269531 -35.664062 28.867188 -35.785156 29.460938 -35.785156 C 31.847656 -35.902344 34.234375 -35.902344 36.621094 -36.023438 C 37.8125 -36.140625 39.003906 -36.261719 40.078125 -36.5 C 41.628906 -36.976562 42.703125 -38.050781 42.941406 -39.722656 C 43.179688 -40.914062 43.539062 -42.226562 43.539062 -43.539062 C 43.417969 -46.519531 43.300781 -49.382812 43.0625 -52.246094 C 42.820312 -55.703125 40.554688 -57.613281 36.976562 -57.734375 C 34.351562 -57.734375 31.730469 -57.734375 29.105469 -57.734375 C 28.628906 -57.734375 28.152344 -57.734375 27.671875 -57.851562 C 27.671875 -60.714844 27.671875 -63.457031 27.792969 -66.320312 C 27.792969 -67.511719 28.269531 -68.707031 28.628906 -69.78125 C 30.535156 -70.613281 32.324219 -70.855469 34.234375 -70.855469 C 35.425781 -70.855469 36.621094 -70.734375 37.933594 -70.613281 C 37.933594 -67.992188 38.171875 -65.484375 39.125 -62.980469 C 41.628906 -62.382812 44.253906 -62.027344 46.757812 -62.027344 C 47.59375 -62.027344 48.546875 -62.027344 49.382812 -62.144531 C 51.171875 -62.382812 52.84375 -63.339844 54.511719 -63.933594 C 54.871094 -64.171875 55.226562 -64.414062 55.347656 -64.769531 C 55.941406 -66.082031 56.777344 -67.511719 56.898438 -68.945312 C 57.734375 -74.671875 57.613281 -80.394531 57.375 -86.242188 C 57.136719 -89.699219 55.347656 -92.203125 51.769531 -92.800781 Z M 51.769531 -92.800781 "/></g></g></g><g fill="#011f5b" fill-opacity="1"><g transform="translate(95.17116, 216.217945)"><g><path d="M 17.652344 -82.664062 C 15.625 -83.496094 13.359375 -83.617188 11.09375 -83.617188 C 6.320312 -83.617188 4.652344 -79.441406 3.101562 -75.625 C 2.742188 -74.671875 2.503906 -73.597656 2.503906 -72.644531 C 2.265625 -69.660156 2.148438 -66.679688 2.027344 -63.695312 C 1.910156 -62.265625 1.910156 -60.714844 1.789062 -59.28125 C 1.074219 -53.558594 0.476562 -47.953125 0.238281 -42.105469 C 0 -36.5 0.121094 -30.773438 0.238281 -25.050781 C 0.597656 -11.808594 2.265625 -0.359375 17.773438 -0.359375 C 21.472656 -0.359375 25.050781 -0.359375 28.628906 -0.835938 C 34.234375 -1.429688 38.527344 -2.980469 40.199219 -8.589844 C 42.464844 -15.507812 42.941406 -23.5 43.179688 -30.773438 C 43.179688 -31.730469 43.0625 -32.800781 42.941406 -33.757812 C 42.820312 -34.832031 42.703125 -35.902344 42.703125 -37.097656 C 42.703125 -38.171875 42.820312 -39.125 42.820312 -40.199219 C 42.941406 -43.179688 43.0625 -46.042969 43.179688 -49.023438 C 43.179688 -57.015625 43.777344 -65.007812 43.894531 -73.121094 C 43.894531 -80.394531 41.988281 -83.972656 34.113281 -83.972656 C 32.324219 -83.972656 30.296875 -83.734375 29.105469 -82.542969 C 27.910156 -81.46875 27.554688 -79.800781 27.316406 -78.128906 C 26.003906 -70.257812 26.601562 -62.265625 26.71875 -54.273438 C 26.839844 -48.667969 26.957031 -43.179688 26.957031 -37.574219 C 26.839844 -35.546875 26.71875 -33.636719 26.601562 -31.609375 C 26.601562 -29.105469 26.480469 -26.71875 26.480469 -24.332031 C 26.480469 -22.664062 25.527344 -21.828125 24.214844 -21.351562 C 23.261719 -20.992188 22.1875 -20.753906 21.230469 -20.515625 C 18.371094 -21.113281 17.773438 -22.425781 17.890625 -24.570312 C 18.011719 -27.792969 18.011719 -30.894531 18.25 -34.113281 C 18.488281 -37.933594 18.726562 -41.628906 18.371094 -45.445312 C 18.011719 -48.90625 17.890625 -52.363281 18.25 -55.824219 C 18.371094 -57.136719 18.25 -58.328125 18.25 -59.640625 C 18.25 -62.742188 18.132812 -65.722656 18.132812 -68.824219 C 18.25 -72.644531 18.488281 -76.460938 18.609375 -80.277344 C 18.609375 -81.230469 18.371094 -82.066406 17.652344 -82.664062 Z M 17.652344 -82.664062 "/></g></g></g><g fill="#011f5b" fill-opacity="1"><g transform="translate(139.900623, 216.217945)"><g><path d="M 30.417969 -34.113281 C 30.417969 -34.351562 30.296875 -34.472656 30.296875 -34.710938 C 30.179688 -35.1875 29.941406 -35.664062 30.296875 -36.023438 C 30.535156 -36.261719 30.773438 -36.261719 31.132812 -36.382812 C 32.324219 -36.5 33.519531 -36.738281 34.710938 -37.097656 C 40.4375 -39.480469 41.03125 -46.402344 41.273438 -51.769531 C 41.511719 -55.824219 41.511719 -59.761719 41.75 -63.816406 C 42.105469 -68.824219 43.417969 -75.625 40.316406 -80.039062 C 38.171875 -83.019531 34.234375 -83.972656 30.65625 -84.09375 C 28.390625 -84.214844 26.003906 -84.214844 23.738281 -84.214844 C 19.203125 -84.214844 14.671875 -84.09375 10.019531 -84.09375 C 3.101562 -84.09375 1.789062 -80.039062 1.429688 -74.074219 C 1.3125 -69.421875 1.191406 -64.769531 0.953125 -60.117188 C 0.953125 -59.761719 0.953125 -59.402344 0.953125 -58.925781 C 0.714844 -53.914062 0.476562 -48.785156 0.953125 -43.65625 C 0.953125 -42.582031 0.953125 -41.511719 0.835938 -40.554688 C 0.597656 -37.933594 0.359375 -35.308594 0.121094 -32.683594 C 0 -30.773438 0.121094 -28.867188 0.238281 -26.957031 C 0.238281 -23.378906 0.476562 -19.800781 0.476562 -16.222656 C 0.476562 -11.808594 0.238281 -7.515625 0.121094 -3.21875 C 0.121094 0.597656 4.175781 1.191406 7.277344 1.191406 C 10.617188 1.191406 14.910156 0.835938 15.625 -3.101562 C 16.460938 -7.871094 16.339844 -12.761719 16.101562 -17.535156 C 16.101562 -19.679688 16.460938 -21.828125 16.582031 -23.976562 C 18.371094 -20.753906 19.441406 -17.058594 20.992188 -13.71875 C 22.542969 -9.902344 24.214844 -6.203125 25.882812 -2.503906 C 27.316406 0.597656 28.507812 1.429688 32.085938 1.429688 C 32.921875 1.429688 33.757812 1.550781 34.832031 1.550781 C 37.335938 1.550781 40.316406 1.191406 41.511719 -0.835938 C 42.703125 -2.742188 41.628906 -5.367188 40.675781 -7.394531 C 36.621094 -16.101562 33.398438 -25.050781 30.417969 -34.113281 Z M 23.5 -53.558594 C 21.472656 -53.320312 19.441406 -52.363281 17.414062 -52.363281 C 17.058594 -52.363281 16.820312 -52.484375 16.460938 -52.484375 C 15.507812 -55.109375 15.746094 -64.054688 16.9375 -67.511719 C 17.414062 -67.871094 18.011719 -67.992188 18.488281 -67.992188 C 19.085938 -67.992188 19.800781 -67.871094 20.398438 -67.753906 C 21.589844 -67.511719 22.78125 -67.15625 24.09375 -66.917969 C 25.050781 -66.796875 25.527344 -66.320312 25.527344 -65.367188 C 25.644531 -64.53125 25.644531 -63.578125 25.644531 -62.742188 C 25.644531 -60.953125 25.527344 -59.28125 25.527344 -57.613281 C 25.40625 -55.941406 25.167969 -54.511719 23.5 -53.558594 Z M 23.5 -53.558594 "/></g></g></g><g fill="#011f5b" fill-opacity="1"><g transform="translate(183.079441, 216.217945)"><g><path d="M 30.417969 -34.113281 C 30.417969 -34.351562 30.296875 -34.472656 30.296875 -34.710938 C 30.179688 -35.1875 29.941406 -35.664062 30.296875 -36.023438 C 30.535156 -36.261719 30.773438 -36.261719 31.132812 -36.382812 C 32.324219 -36.5 33.519531 -36.738281 34.710938 -37.097656 C 40.4375 -39.480469 41.03125 -46.402344 41.273438 -51.769531 C 41.511719 -55.824219 41.511719 -59.761719 41.75 -63.816406 C 42.105469 -68.824219 43.417969 -75.625 40.316406 -80.039062 C 38.171875 -83.019531 34.234375 -83.972656 30.65625 -84.09375 C 28.390625 -84.214844 26.003906 -84.214844 23.738281 -84.214844 C 19.203125 -84.214844 14.671875 -84.09375 10.019531 -84.09375 C 3.101562 -84.09375 1.789062 -80.039062 1.429688 -74.074219 C 1.3125 -69.421875 1.191406 -64.769531 0.953125 -60.117188 C 0.953125 -59.761719 0.953125 -59.402344 0.953125 -58.925781 C 0.714844 -53.914062 0.476562 -48.785156 0.953125 -43.65625 C 0.953125 -42.582031 0.953125 -41.511719 0.835938 -40.554688 C 0.597656 -37.933594 0.359375 -35.308594 0.121094 -32.683594 C 0 -30.773438 0.121094 -28.867188 0.238281 -26.957031 C 0.238281 -23.378906 0.476562 -19.800781 0.476562 -16.222656 C 0.476562 -11.808594 0.238281 -7.515625 0.121094 -3.21875 C 0.121094 0.597656 4.175781 1.191406 7.277344 1.191406 C 10.617188 1.191406 14.910156 0.835938 15.625 -3.101562 C 16.460938 -7.871094 16.339844 -12.761719 16.101562 -17.535156 C 16.101562 -19.679688 16.460938 -21.828125 16.582031 -23.976562 C 18.371094 -20.753906 19.441406 -17.058594 20.992188 -13.71875 C 22.542969 -9.902344 24.214844 -6.203125 25.882812 -2.503906 C 27.316406 0.597656 28.507812 1.429688 32.085938 1.429688 C 32.921875 1.429688 33.757812 1.550781 34.832031 1.550781 C 37.335938 1.550781 40.316406 1.191406 41.511719 -0.835938 C 42.703125 -2.742188 41.628906 -5.367188 40.675781 -7.394531 C 36.621094 -16.101562 33.398438 -25.050781 30.417969 -34.113281 Z M 23.5 -53.558594 C 21.472656 -53.320312 19.441406 -52.363281 17.414062 -52.363281 C 17.058594 -52.363281 16.820312 -52.484375 16.460938 -52.484375 C 15.507812 -55.109375 15.746094 -64.054688 16.9375 -67.511719 C 17.414062 -67.871094 18.011719 -67.992188 18.488281 -67.992188 C 19.085938 -67.992188 19.800781 -67.871094 20.398438 -67.753906 C 21.589844 -67.511719 22.78125 -67.15625 24.09375 -66.917969 C 25.050781 -66.796875 25.527344 -66.320312 25.527344 -65.367188 C 25.644531 -64.53125 25.644531 -63.578125 25.644531 -62.742188 C 25.644531 -60.953125 25.527344 -59.28125 25.527344 -57.613281 C 25.40625 -55.941406 25.167969 -54.511719 23.5 -53.558594 Z M 23.5 -53.558594 "/></g></g></g><g fill="#011f5b" fill-opacity="1"><g transform="translate(226.258274, 216.217945)"><g><path d="M 0 -33.28125 C 0.238281 -23.019531 -0.121094 -15.269531 0.476562 -7.632812 C 0.714844 -4.414062 2.148438 -2.386719 5.011719 -1.191406 C 5.84375 -0.835938 6.917969 -0.835938 7.753906 -0.476562 C 8.589844 -0.238281 9.421875 -0.121094 10.257812 -0.121094 C 12.285156 -0.121094 14.195312 -0.714844 15.984375 -1.191406 C 16.339844 -1.3125 16.582031 -1.550781 16.9375 -1.789062 C 18.609375 -3.101562 19.5625 -4.769531 19.5625 -6.917969 C 19.5625 -8.828125 19.5625 -10.734375 19.5625 -12.523438 C 19.679688 -14.433594 19.5625 -16.339844 19.800781 -18.132812 C 20.277344 -20.636719 20.277344 -23.140625 20.277344 -25.527344 C 20.398438 -27.792969 20.160156 -30.058594 20.753906 -32.207031 C 20.992188 -32.800781 20.992188 -33.398438 20.992188 -33.996094 C 21.113281 -37.574219 21.113281 -41.152344 21.230469 -44.730469 C 21.472656 -54.632812 21.589844 -64.652344 21.589844 -74.550781 C 21.589844 -76.578125 21.589844 -78.605469 21.472656 -80.515625 C 21.351562 -82.183594 20.277344 -83.378906 18.609375 -83.496094 C 16.9375 -83.496094 15.386719 -83.496094 13.71875 -83.378906 C 11.808594 -83.257812 9.902344 -82.902344 7.992188 -82.902344 C 6.082031 -82.78125 4.890625 -81.945312 4.175781 -80.15625 C 2.980469 -77.292969 2.742188 -74.3125 2.503906 -71.332031 C 2.148438 -67.632812 2.148438 -63.933594 1.910156 -60.238281 C 1.671875 -57.015625 1.191406 -53.914062 0.953125 -50.695312 C 0.476562 -44.132812 0.238281 -37.453125 0 -33.28125 Z M 0 -33.28125 "/></g></g></g><g fill="#011f5b" fill-opacity="1"><g transform="translate(248.682605, 216.217945)"><g><path d="M 42.464844 -57.613281 C 42.464844 -61.90625 42.582031 -66.320312 42.703125 -70.613281 C 42.703125 -71.449219 42.703125 -72.164062 42.820312 -73 C 43.0625 -74.3125 43.300781 -75.742188 42.820312 -77.054688 C 42.34375 -78.128906 41.867188 -79.324219 41.390625 -80.394531 C 40.078125 -83.734375 35.546875 -83.855469 32.445312 -83.855469 C 29.941406 -83.855469 27.316406 -83.972656 24.8125 -83.972656 C 18.609375 -83.972656 10.378906 -83.378906 5.84375 -78.605469 C -0.121094 -72.523438 1.191406 -63.695312 0.835938 -56.0625 C 0.597656 -52.007812 0.238281 -47.953125 0.121094 -43.894531 C 0 -38.410156 0 -33.042969 0.121094 -27.671875 C 0.238281 -22.425781 -0.238281 -17.058594 0.953125 -11.929688 C 2.386719 -4.414062 4.652344 -1.671875 12.285156 -0.714844 C 15.269531 -0.238281 18.132812 -0.121094 21.113281 -0.121094 C 26.601562 -0.121094 36.382812 -0.359375 40.554688 -3.578125 C 42.105469 -4.769531 42.941406 -6.320312 43.179688 -8.230469 C 43.417969 -10.617188 43.417969 -13 43.417969 -15.386719 C 43.417969 -17.652344 43.179688 -19.800781 42.941406 -21.949219 C 42.941406 -22.664062 42.703125 -23.5 42.226562 -24.214844 C 41.511719 -25.289062 40.554688 -26.363281 39.125 -26.242188 C 37.214844 -26.242188 28.152344 -26.242188 27.195312 -24.332031 C 26.480469 -21.949219 27.195312 -19.800781 25.882812 -18.011719 C 24.570312 -18.132812 23.378906 -18.132812 22.1875 -18.132812 C 22.066406 -18.132812 21.828125 -18.132812 21.710938 -18.132812 C 19.441406 -18.371094 18.25 -19.679688 18.132812 -21.828125 C 18.132812 -25.050781 18.132812 -28.269531 18.132812 -31.492188 C 18.132812 -31.730469 18.25 -31.96875 18.371094 -32.207031 C 19.324219 -32.445312 20.277344 -32.5625 21.230469 -32.683594 C 22.664062 -32.683594 24.09375 -32.683594 25.644531 -32.800781 C 26.601562 -32.921875 27.671875 -33.042969 28.746094 -33.398438 C 30.179688 -33.757812 31.132812 -34.832031 31.371094 -36.382812 C 31.492188 -37.691406 31.609375 -39.003906 31.609375 -40.316406 C 31.492188 -42.582031 31.132812 -44.851562 31.011719 -47.117188 C 31.011719 -50.335938 28.507812 -52.007812 25.527344 -52.007812 C 23.378906 -51.886719 21.230469 -51.886719 19.085938 -51.769531 C 18.488281 -51.769531 18.011719 -51.769531 17.414062 -51.769531 C 17.414062 -54.632812 17.414062 -57.375 17.414062 -60.117188 C 17.535156 -60.953125 17.890625 -61.667969 18.132812 -62.503906 C 19.921875 -63.339844 21.710938 -63.578125 23.5 -63.578125 C 24.214844 -63.578125 25.050781 -63.578125 25.882812 -63.457031 C 26.242188 -61.667969 26.480469 -60.117188 26.71875 -58.449219 C 26.839844 -56.539062 27.671875 -55.226562 29.34375 -54.394531 C 31.730469 -54.511719 33.996094 -54.511719 36.261719 -54.632812 C 37.097656 -54.75 37.933594 -55.226562 38.886719 -55.347656 C 40.4375 -55.585938 41.511719 -56.421875 42.464844 -57.613281 Z M 42.464844 -57.613281 "/></g></g></g><g fill="#011f5b" fill-opacity="1"><g transform="translate(292.934953, 216.217945)"><g><path d="M 27.316406 -53.796875 C 28.269531 -53.675781 29.222656 -53.4375 30.179688 -53.4375 C 33.28125 -53.4375 35.546875 -53.558594 38.648438 -53.914062 C 39.722656 -54.035156 40.792969 -54.394531 41.75 -54.871094 C 42.34375 -56.421875 42.464844 -57.851562 42.464844 -59.402344 C 42.582031 -61.3125 42.703125 -63.339844 42.820312 -65.246094 C 42.820312 -65.605469 42.820312 -65.84375 42.820312 -66.203125 C 42.820312 -69.0625 42.820312 -71.925781 42.820312 -74.789062 C 42.941406 -76.578125 42.820312 -78.367188 41.988281 -80.039062 C 41.152344 -81.828125 39.839844 -82.902344 38.050781 -83.140625 C 35.664062 -83.617188 33.519531 -83.855469 31.011719 -83.855469 C 26.71875 -83.855469 22.542969 -84.09375 18.25 -84.09375 C 14.195312 -84.09375 9.304688 -84.09375 5.488281 -82.425781 C 4.652344 -81.945312 3.816406 -81.46875 3.460938 -80.515625 C 2.980469 -79.5625 2.503906 -78.726562 2.386719 -77.652344 C 1.671875 -73.835938 0.953125 -69.898438 1.429688 -65.964844 C 1.429688 -65.605469 1.429688 -65.128906 1.429688 -64.769531 C 0.953125 -60.476562 0.953125 -56.183594 1.789062 -51.886719 C 1.910156 -51.171875 2.027344 -50.574219 2.027344 -49.859375 C 1.789062 -48.308594 2.503906 -46.996094 3.578125 -45.921875 C 4.890625 -44.730469 6.203125 -43.417969 7.632812 -42.34375 C 9.902344 -40.554688 12.285156 -39.003906 14.550781 -37.335938 C 15.746094 -36.382812 16.820312 -35.425781 17.890625 -34.351562 C 18.847656 -33.398438 19.800781 -32.324219 20.753906 -31.371094 C 22.1875 -29.941406 23.5 -28.628906 24.8125 -27.433594 C 24.8125 -26.839844 24.929688 -26.363281 24.929688 -26.003906 C 24.929688 -24.691406 24.929688 -23.378906 24.929688 -22.066406 C 24.8125 -20.039062 23.617188 -18.847656 21.710938 -18.488281 C 20.277344 -18.371094 18.726562 -18.371094 17.175781 -18.25 C 16.820312 -18.964844 16.460938 -19.5625 16.460938 -20.277344 C 16.222656 -22.304688 16.101562 -24.453125 15.984375 -26.480469 C 15.984375 -28.390625 15.269531 -29.34375 13.480469 -29.941406 C 11.570312 -30.894531 9.542969 -30.894531 7.394531 -30.894531 C 1.429688 -30.535156 0.121094 -25.882812 0.121094 -20.992188 C 0.121094 -15.984375 0 -11.09375 0.476562 -6.082031 C 0.597656 -4.292969 1.550781 -2.980469 2.625 -1.789062 C 2.980469 -1.429688 3.460938 -1.191406 3.9375 -1.074219 C 5.488281 -0.714844 7.15625 -0.597656 8.707031 -0.359375 C 9.902344 -0.238281 11.210938 -0.121094 12.523438 0 C 14.789062 0.121094 17.175781 0.476562 19.5625 0.476562 C 21.472656 0.476562 23.261719 0.359375 25.167969 0.238281 C 28.03125 0.121094 30.894531 0.121094 33.757812 0 C 35.902344 -0.121094 38.050781 -0.714844 39.839844 -2.027344 C 40.554688 -2.742188 41.152344 -3.460938 41.273438 -4.414062 C 41.511719 -6.441406 41.867188 -8.46875 41.988281 -10.496094 C 42.105469 -15.03125 42.226562 -19.5625 42.105469 -24.214844 C 42.105469 -27.671875 41.75 -34.351562 40.199219 -37.453125 C 38.289062 -39.722656 36.621094 -42.105469 34.113281 -43.65625 C 27.910156 -47.710938 22.1875 -52.601562 17.175781 -57.972656 C 17.296875 -59.761719 17.296875 -61.429688 18.371094 -62.980469 C 19.800781 -63.578125 21.230469 -63.816406 22.664062 -63.816406 C 23.738281 -63.816406 24.929688 -63.695312 26.003906 -63.578125 C 26.363281 -60.355469 25.882812 -57.136719 27.316406 -53.796875 Z M 27.316406 -53.796875 "/></g></g></g></svg>